<?xml version="1.0" encoding="UTF-8" standalone="no"?><!DOCTYPE svg PUBLIC "-//W3C//DTD SVG 1.1//EN" "http://www.w3.org/Graphics/SVG/1.1/DTD/svg11.dtd"><svg width="100%" height="100%" viewBox="0 0 2000 875" version="1.1" xmlns="http://www.w3.org/2000/svg" xmlns:xlink="http://www.w3.org/1999/xlink" xml:space="preserve" xmlns:serif="http://www.serif.com/" style="fill-rule:evenodd;clip-rule:evenodd;stroke-linejoin:round;stroke-miterlimit:2;"><g id="titleGDG"><g id="textGDG"><g><path d="M156.113,577.635c-8.123,0 -15.147,-1.985 -21.071,-5.957c-5.924,-3.971 -10.479,-9.614 -13.665,-16.928c-3.186,-7.314 -4.78,-16.042 -4.78,-26.184l0,-2.558c0,-10.141 1.582,-18.903 4.746,-26.284c3.164,-7.382 7.674,-13.07 13.531,-17.063c5.857,-3.994 12.802,-5.991 20.835,-5.991c8.302,0 15.225,2.098 20.767,6.294c5.542,4.195 9.481,10.309 11.814,18.342l-18.647,6.394c-1.122,-4.039 -2.793,-6.989 -5.015,-8.851c-2.221,-1.863 -5.15,-2.794 -8.785,-2.794c-5.968,0 -10.524,2.536 -13.665,7.606c-3.141,5.071 -4.712,12.408 -4.712,22.011l-0,3.231c-0,9.648 1.604,16.996 4.813,22.044c3.209,5.048 7.865,7.572 13.968,7.572c4.847,0 8.606,-1.626 11.276,-4.88c2.67,-3.253 4.005,-7.797 4.005,-13.63l0,-2.962l-18.714,0l0,-16.625l37.832,-0l0,15.346c0,13.373 -2.995,23.694 -8.987,30.963c-5.991,7.27 -14.506,10.904 -25.546,10.904Z" style="fill:#3a3f43;fill-rule:nonzero;stroke:#567dbf;stroke-width:40.67px;"/><path d="M233.595,577.635c-6.867,0 -12.948,-1.581 -18.243,-4.745c-5.296,-3.164 -9.436,-7.528 -12.42,-13.092c-2.985,-5.564 -4.477,-11.936 -4.477,-19.116l0,-1.481c0,-7.18 1.492,-13.552 4.477,-19.116c2.984,-5.564 7.124,-9.928 12.42,-13.092c5.295,-3.163 11.376,-4.745 18.243,-4.745c6.866,-0 12.936,1.582 18.209,4.745c5.273,3.164 9.413,7.528 12.42,13.092c3.007,5.564 4.51,11.936 4.51,19.116l0,1.481c0,7.18 -1.503,13.552 -4.51,19.116c-3.007,5.564 -7.147,9.928 -12.42,13.092c-5.273,3.164 -11.343,4.745 -18.209,4.745Zm-0,-17.904c4.532,-0 8.156,-1.75 10.871,-5.25c2.715,-3.5 4.073,-8.19 4.073,-14.068l0,-0.943c0,-5.878 -1.358,-10.567 -4.073,-14.067c-2.715,-3.501 -6.339,-5.251 -10.871,-5.251c-4.533,0 -8.157,1.75 -10.872,5.251c-2.715,3.5 -4.073,8.189 -4.073,14.067l0,0.943c0,5.878 1.358,10.568 4.073,14.068c2.715,3.5 6.339,5.25 10.872,5.25Z" style="fill:#3a3f43;fill-rule:nonzero;stroke:#567dbf;stroke-width:40.67px;"/><path d="M233.595,554.016c-6.867,0 -12.948,-0.636 -18.243,-1.91c-5.296,-1.273 -9.436,-3.03 -12.42,-5.27c-2.985,-2.24 -4.477,-4.805 -4.477,-7.695l0,-0.596c0,-2.89 1.492,-5.455 4.477,-7.695c2.984,-2.24 7.124,-3.997 12.42,-5.27c5.295,-1.274 11.376,-1.91 18.243,-1.91c6.866,-0 12.936,0.636 18.209,1.91c5.273,1.273 9.413,3.03 12.42,5.27c3.007,2.24 4.51,4.805 4.51,7.695l0,0.596c0,2.89 -1.503,5.455 -4.51,7.695c-3.007,2.24 -7.147,3.997 -12.42,5.27c-5.273,1.274 -11.343,1.91 -18.209,1.91Zm-0,-7.207c4.532,0 8.156,-0.704 10.871,-2.113c2.715,-1.409 4.073,-3.297 4.073,-5.663l0,-0.38c0,-2.366 -1.358,-4.254 -4.073,-5.663c-2.715,-1.408 -6.339,-2.113 -10.871,-2.113c-4.533,0 -8.157,0.705 -10.872,2.113c-2.715,1.409 -4.073,3.297 -4.073,5.663l0,0.38c0,2.366 1.358,4.254 4.073,5.663c2.715,1.409 6.339,2.113 10.872,2.113Z" style="fill:#3a3f43;fill-rule:nonzero;stroke:#567dbf;stroke-width:40.67px;"/><path d="M304.458,552.918c-6.866,-0 -12.947,-0.637 -18.242,-1.91c-5.296,-1.274 -9.436,-3.03 -12.42,-5.27c-2.985,-2.24 -4.477,-4.805 -4.477,-7.695l-0,-0.597c-0,-2.89 1.492,-5.455 4.477,-7.695c2.984,-2.239 7.124,-3.996 12.42,-5.27c5.295,-1.273 11.376,-1.91 18.242,-1.91c6.867,0 12.937,0.637 18.21,1.91c5.273,1.274 9.413,3.031 12.42,5.27c3.007,2.24 4.51,4.805 4.51,7.695l-0,0.597c-0,2.89 -1.503,5.455 -4.51,7.695c-3.007,2.24 -7.147,3.996 -12.42,5.27c-5.273,1.273 -11.343,1.91 -18.21,1.91Zm0,-7.207c4.533,-0 8.157,-0.705 10.872,-2.114c2.715,-1.409 4.073,-3.296 4.073,-5.663l-0,-0.379c-0,-2.366 -1.358,-4.254 -4.073,-5.663c-2.715,-1.409 -6.339,-2.114 -10.872,-2.114c-4.532,0 -8.156,0.705 -10.871,2.114c-2.715,1.409 -4.073,3.297 -4.073,5.663l0,0.379c0,2.367 1.358,4.254 4.073,5.663c2.715,1.409 6.339,2.114 10.871,2.114Z" style="fill:#3a3f43;fill-rule:nonzero;stroke:#567dbf;stroke-width:40.67px;"/><path d="M393.45,544.679c-6.866,-0 -12.947,-0.637 -18.243,-1.91c-5.295,-1.274 -9.435,-3.031 -12.42,-5.27c-2.984,-2.24 -4.476,-4.805 -4.476,-7.696l-0,-0.596c-0,-2.89 1.492,-5.455 4.476,-7.695c2.985,-2.24 7.125,-3.996 12.42,-5.27c5.296,-1.273 11.377,-1.91 18.243,-1.91c6.867,-0 12.936,0.637 18.21,1.91c5.273,1.274 9.413,3.03 12.42,5.27c3.006,2.24 4.51,4.805 4.51,7.695l-0,0.596c-0,2.891 -1.504,5.456 -4.51,7.696c-3.007,2.239 -7.147,3.996 -12.42,5.27c-5.274,1.273 -11.343,1.91 -18.21,1.91Zm0,-7.208c4.533,0 8.157,-0.704 10.872,-2.113c2.715,-1.409 4.073,-3.297 4.073,-5.663l-0,-0.379c-0,-2.367 -1.358,-4.254 -4.073,-5.663c-2.715,-1.409 -6.339,-2.114 -10.872,-2.114c-4.532,0 -8.156,0.705 -10.871,2.114c-2.716,1.409 -4.073,3.296 -4.073,5.663l-0,0.379c-0,2.366 1.357,4.254 4.073,5.663c2.715,1.409 6.339,2.113 10.871,2.113Z" style="fill:#3a3f43;fill-rule:nonzero;stroke:#567dbf;stroke-width:40.67px;"/><path d="M314.375,577.635c-6.866,0 -12.947,-1.581 -18.243,-4.745c-5.295,-3.164 -9.435,-7.528 -12.42,-13.092c-2.984,-5.564 -4.476,-11.936 -4.476,-19.116l-0,-1.481c-0,-7.18 1.492,-13.552 4.476,-19.116c2.985,-5.564 7.125,-9.928 12.42,-13.092c5.296,-3.163 11.377,-4.745 18.243,-4.745c6.867,-0 12.936,1.582 18.209,4.745c5.274,3.164 9.414,7.528 12.42,13.092c3.007,5.564 4.511,11.936 4.511,19.116l-0,1.481c-0,7.18 -1.504,13.552 -4.511,19.116c-3.006,5.564 -7.146,9.928 -12.42,13.092c-5.273,3.164 -11.342,4.745 -18.209,4.745Zm0,-17.904c4.533,-0 8.157,-1.75 10.872,-5.25c2.715,-3.5 4.073,-8.19 4.073,-14.068l-0,-0.943c-0,-5.878 -1.358,-10.567 -4.073,-14.067c-2.715,-3.501 -6.339,-5.251 -10.872,-5.251c-4.533,0 -8.156,1.75 -10.872,5.251c-2.715,3.5 -4.072,8.189 -4.072,14.067l-0,0.943c-0,5.878 1.357,10.568 4.072,14.068c2.716,3.5 6.339,5.25 10.872,5.25Z" style="fill:#3a3f43;fill-rule:nonzero;stroke:#567dbf;stroke-width:40.67px;"/><path d="M395.088,613.848c-7.494,0 -14.069,-1.043 -19.724,-3.13c-5.654,-2.086 -10.052,-4.992 -13.194,-8.716c-3.141,-3.725 -4.712,-8.055 -4.712,-12.991c0,-5.116 1.627,-9.48 4.881,-13.092c3.253,-3.612 7.797,-6.069 13.631,-7.371l3.097,8.212c-1.257,1.302 -2.188,2.715 -2.794,4.241c-0.606,1.526 -0.909,3.208 -0.909,5.048c0,3.994 1.717,7.068 5.15,9.222c3.433,2.154 8.336,3.231 14.709,3.231c6.238,-0 11.175,-0.999 14.81,-2.996c3.635,-1.997 5.452,-4.7 5.452,-8.111c0,-4.756 -3.051,-7.135 -9.155,-7.135l-35.543,0l-0,-6.596l14.271,-22.482l10.704,1.414l-4.241,12.452l18.579,0c7.36,0 13.105,1.807 17.233,5.419c4.129,3.612 6.193,8.672 6.193,15.178c0,5.789 -1.559,10.792 -4.678,15.01c-3.119,4.219 -7.551,7.472 -13.295,9.76c-5.745,2.289 -12.566,3.433 -20.465,3.433Zm0.674,-56.944c-6.014,-0 -11.433,-1.189 -16.258,-3.568c-4.824,-2.378 -8.639,-5.62 -11.443,-9.726c-2.805,-4.106 -4.208,-8.717 -4.208,-13.832l0,-0.404c0,-5.34 1.302,-10.052 3.905,-14.135c2.603,-4.084 6.215,-7.27 10.838,-9.558c4.622,-2.289 9.963,-3.433 16.021,-3.433c6.059,-0 11.5,1.189 16.325,3.567c4.824,2.379 8.639,5.61 11.443,9.693c2.805,4.084 4.208,8.705 4.208,13.866l-0,0.404c-0,5.34 -1.302,10.051 -3.905,14.135c-2.603,4.083 -6.226,7.269 -10.871,9.558c-4.645,2.289 -9.997,3.433 -16.055,3.433Zm-0.539,-15.616c4.129,-0 7.371,-1.01 9.727,-3.029c2.356,-2.019 3.534,-4.779 3.534,-8.279l0,-0.539c0,-3.5 -1.178,-6.26 -3.534,-8.279c-2.356,-2.019 -5.598,-3.029 -9.727,-3.029c-4.129,0 -7.382,1.01 -9.761,3.029c-2.379,2.019 -3.568,4.779 -3.568,8.279l0,0.539c0,3.5 1.189,6.26 3.568,8.279c2.379,2.019 5.632,3.029 9.761,3.029Zm16.089,-28.674l-6.597,-3.972c1.436,-6.551 4.431,-11.51 8.987,-14.875c4.555,-3.366 10.512,-5.048 17.872,-5.048l0,16.827c-9.245,0 -15.999,2.356 -20.262,7.068Z" style="fill:#3a3f43;fill-rule:nonzero;stroke:#567dbf;stroke-width:40.67px;"/><path d="M488.861,577.635c-9.065,0 -16.145,-2.524 -21.238,-7.572c-5.094,-5.048 -7.641,-12.037 -7.641,-20.967l0,-72.022l20.397,-0l0,70.541c0,7.898 3.478,11.847 10.434,11.847c1.885,-0 3.624,-0.359 5.217,-1.077c1.594,-0.718 3.288,-1.907 5.083,-3.568l10.636,14.337c-3.231,2.917 -6.676,5.06 -10.333,6.428c-3.658,1.369 -7.843,2.053 -12.555,2.053Zm-48.468,-84.811l-0,-15.75l34.937,-0l0,15.75l-34.937,0Z" style="fill:#3a3f43;fill-rule:nonzero;stroke:#567dbf;stroke-width:40.67px;"/><path d="M558.804,577.635c-7.405,0 -13.845,-1.525 -19.32,-4.577c-5.476,-3.051 -9.717,-7.348 -12.723,-12.89c-3.007,-5.542 -4.511,-12.037 -4.511,-19.486l0,-1.481c0,-7.404 1.515,-13.877 4.544,-19.419c3.03,-5.542 7.259,-9.85 12.69,-12.923c5.43,-3.074 11.735,-4.611 18.916,-4.611c6.462,-0 12.094,1.346 16.896,4.039c4.802,2.692 8.538,6.495 11.209,11.409c2.67,4.913 4.005,10.668 4.005,17.265c-0,1.929 -0.067,3.713 -0.202,5.351c-0.135,1.638 -0.359,3.107 -0.673,4.409l-56.816,-0l0,-11.847l39.111,0l0,0.404c0,-4.667 -1.189,-8.313 -3.567,-10.938c-2.379,-2.625 -5.655,-3.938 -9.829,-3.938c-5.206,0 -9.323,1.874 -12.352,5.621c-3.03,3.747 -4.544,8.896 -4.544,15.447l-0,0.943c-0,6.417 1.537,11.487 4.611,15.212c3.074,3.724 7.259,5.587 12.555,5.587c6.507,-0 11.152,-3.186 13.934,-9.558l17.301,7.202c-2.693,6.013 -6.732,10.646 -12.117,13.899c-5.386,3.254 -11.758,4.88 -19.118,4.88Z" style="fill:#3a3f43;fill-rule:nonzero;stroke:#567dbf;stroke-width:40.67px;"/></g><g><path d="M685.696,575.347l0,-96.388l28.139,-0c8.078,-0 15.068,1.907 20.969,5.721c5.902,3.814 10.457,9.21 13.666,16.188c3.208,6.978 4.813,15.246 4.813,24.804l-0,2.962c-0,9.513 -1.605,17.769 -4.813,24.77c-3.209,7 -7.764,12.407 -13.666,16.221c-5.901,3.815 -12.891,5.722 -20.969,5.722l-28.139,-0Zm20.599,-19.386l7.271,0c6.193,0 10.838,-2.254 13.934,-6.764c3.097,-4.51 4.645,-11.252 4.645,-20.227l0,-3.635c0,-8.974 -1.559,-15.717 -4.678,-20.226c-3.119,-4.51 -7.753,-6.765 -13.901,-6.765l-7.271,-0l0,57.617Z" style="fill:#3a3f43;fill-rule:nonzero;stroke:#e84538;stroke-width:40.67px;"/><path d="M801.145,577.635c-7.405,0 -13.845,-1.525 -19.32,-4.577c-5.475,-3.051 -9.716,-7.348 -12.723,-12.89c-3.007,-5.542 -4.51,-12.037 -4.51,-19.486l0,-1.481c0,-7.404 1.515,-13.877 4.544,-19.419c3.029,-5.542 7.259,-9.85 12.689,-12.923c5.43,-3.074 11.736,-4.611 18.916,-4.611c6.463,-0 12.095,1.346 16.897,4.039c4.802,2.692 8.538,6.495 11.208,11.409c2.67,4.913 4.006,10.668 4.006,17.265c-0,1.929 -0.068,3.713 -0.202,5.351c-0.135,1.638 -0.359,3.107 -0.674,4.409l-56.815,-0l-0,-11.847l39.111,0l0,0.404c0,-4.667 -1.189,-8.313 -3.568,-10.938c-2.378,-2.625 -5.654,-3.938 -9.828,-3.938c-5.206,0 -9.323,1.874 -12.353,5.621c-3.029,3.747 -4.544,8.896 -4.544,15.447l0,0.943c0,6.417 1.537,11.487 4.612,15.212c3.074,3.724 7.259,5.587 12.554,5.587c6.508,-0 11.152,-3.186 13.935,-9.558l17.3,7.202c-2.692,6.013 -6.731,10.646 -12.117,13.899c-5.385,3.254 -11.758,4.88 -19.118,4.88Z" style="fill:#3a3f43;fill-rule:nonzero;stroke:#e84538;stroke-width:40.67px;"/><path d="M869.472,575.347l-25.984,-70.811l21.541,0l10.502,32.175l4.375,18.577l0.606,0l4.376,-18.577l9.963,-32.175l21.339,0l-25.984,70.811l-20.734,-0Z" style="fill:#3a3f43;fill-rule:nonzero;stroke:#e84538;stroke-width:40.67px;"/><path d="M962.706,577.635c-7.405,0 -13.845,-1.525 -19.32,-4.577c-5.475,-3.051 -9.716,-7.348 -12.723,-12.89c-3.006,-5.542 -4.51,-12.037 -4.51,-19.486l0,-1.481c0,-7.404 1.515,-13.877 4.544,-19.419c3.029,-5.542 7.259,-9.85 12.689,-12.923c5.431,-3.074 11.736,-4.611 18.916,-4.611c6.463,-0 12.095,1.346 16.897,4.039c4.802,2.692 8.538,6.495 11.208,11.409c2.671,4.913 4.006,10.668 4.006,17.265c-0,1.929 -0.068,3.713 -0.202,5.351c-0.135,1.638 -0.359,3.107 -0.673,4.409l-56.816,-0l-0,-11.847l39.111,0l0,0.404c0,-4.667 -1.189,-8.313 -3.568,-10.938c-2.378,-2.625 -5.654,-3.938 -9.828,-3.938c-5.206,0 -9.323,1.874 -12.353,5.621c-3.029,3.747 -4.544,8.896 -4.544,15.447l0,0.943c0,6.417 1.538,11.487 4.612,15.212c3.074,3.724 7.259,5.587 12.554,5.587c6.508,-0 11.153,-3.186 13.935,-9.558l17.3,7.202c-2.692,6.013 -6.731,10.646 -12.117,13.899c-5.385,3.254 -11.758,4.88 -19.118,4.88Z" style="fill:#3a3f43;fill-rule:nonzero;stroke:#e84538;stroke-width:40.67px;"/></g><g><path d="M1054.33,577.635c-9.065,0 -16.145,-2.524 -21.239,-7.572c-5.093,-5.048 -7.64,-12.037 -7.64,-20.967l-0,-72.022l20.397,-0l-0,70.541c-0,7.898 3.478,11.847 10.434,11.847c1.885,-0 3.624,-0.359 5.217,-1.077c1.593,-0.718 3.288,-1.907 5.083,-3.568l10.636,14.337c-3.231,2.917 -6.676,5.06 -10.333,6.428c-3.658,1.369 -7.843,2.053 -12.555,2.053Zm-48.468,-84.811l-0,-15.75l34.937,-0l0,15.75l-34.937,0Z" style="fill:#3a3f43;fill-rule:nonzero;stroke:#fabb19;stroke-width:40.67px;"/><path d="M1122.18,577.635c-6.867,0 -12.948,-1.581 -18.243,-4.745c-5.296,-3.164 -9.436,-7.528 -12.42,-13.092c-2.985,-5.564 -4.477,-11.936 -4.477,-19.116l0,-1.481c0,-7.18 1.492,-13.552 4.477,-19.116c2.984,-5.564 7.124,-9.928 12.42,-13.092c5.295,-3.163 11.376,-4.745 18.243,-4.745c6.866,-0 12.936,1.582 18.209,4.745c5.273,3.164 9.413,7.528 12.42,13.092c3.007,5.564 4.51,11.936 4.51,19.116l0,1.481c0,7.18 -1.503,13.552 -4.51,19.116c-3.007,5.564 -7.147,9.928 -12.42,13.092c-5.273,3.164 -11.343,4.745 -18.209,4.745Zm-0,-17.904c4.532,-0 8.156,-1.75 10.871,-5.25c2.715,-3.5 4.073,-8.19 4.073,-14.068l-0,-0.943c-0,-5.878 -1.358,-10.567 -4.073,-14.067c-2.715,-3.501 -6.339,-5.251 -10.871,-5.251c-4.533,0 -8.157,1.75 -10.872,5.251c-2.715,3.5 -4.073,8.189 -4.073,14.067l0,0.943c0,5.878 1.358,10.568 4.073,14.068c2.715,3.5 6.339,5.25 10.872,5.25Z" style="fill:#3a3f43;fill-rule:nonzero;stroke:#fabb19;stroke-width:40.67px;"/><path d="M1129.21,560.937c-5.492,0 -10.357,-0.706 -14.592,-2.117c-4.236,-1.412 -7.548,-3.36 -9.935,-5.843c-2.387,-2.483 -3.581,-5.326 -3.581,-8.53l-0,-0.661c-0,-3.204 1.194,-6.048 3.581,-8.531c2.387,-2.483 5.699,-4.431 9.935,-5.842c4.235,-1.412 9.1,-2.118 14.592,-2.118c5.492,-0 10.348,0.706 14.566,2.118c4.218,1.411 7.529,3.359 9.934,5.842c2.406,2.483 3.608,5.327 3.608,8.531l0,0.661c0,3.204 -1.202,6.047 -3.608,8.53c-2.405,2.483 -5.716,4.431 -9.934,5.843c-4.218,1.411 -9.074,2.117 -14.566,2.117Zm0,-7.99c3.626,0 6.524,-0.781 8.696,-2.343c2.172,-1.562 3.258,-3.654 3.258,-6.278l0,-0.42c0,-2.623 -1.086,-4.716 -3.258,-6.278c-2.172,-1.562 -5.07,-2.343 -8.696,-2.343c-3.626,-0 -6.524,0.781 -8.696,2.343c-2.172,1.562 -3.258,3.655 -3.258,6.278l0,0.42c0,2.624 1.086,4.716 3.258,6.278c2.172,1.562 5.07,2.343 8.696,2.343Z" style="fill:#3a3f43;fill-rule:nonzero;stroke:#fabb19;stroke-width:40.67px;"/><path d="M1211.11,502.248c5.206,-0 9.761,1.548 13.666,4.644c3.904,3.097 6.945,7.427 9.121,12.991c2.177,5.564 3.265,12.071 3.265,19.52l0,1.077c0,7.449 -1.066,13.967 -3.197,19.554c-2.132,5.586 -5.116,9.917 -8.954,12.991c-3.837,3.073 -8.336,4.61 -13.497,4.61c-4.353,0 -8.19,-1.02 -11.511,-3.062c-3.321,-2.042 -6.171,-5.06 -8.549,-9.053l-0.606,-0l0,37.289l-20.33,0l0,-98.273l19.657,0l-0,10.501l0.606,-0c2.109,-4.039 4.936,-7.18 8.482,-9.424c3.545,-2.243 7.494,-3.365 11.847,-3.365Zm-7.27,16.827c-4.129,0 -7.427,1.84 -9.895,5.52c-2.469,3.68 -3.703,8.638 -3.703,14.875l0,0.943c0,6.237 1.234,11.196 3.703,14.875c2.468,3.68 5.744,5.52 9.828,5.52c4.174,-0 7.394,-1.739 9.66,-5.217c2.266,-3.477 3.399,-8.402 3.399,-14.774l0,-1.683c0,-6.417 -1.133,-11.364 -3.399,-14.842c-2.266,-3.478 -5.464,-5.217 -9.593,-5.217Z" style="fill:#3a3f43;fill-rule:nonzero;stroke:#fabb19;stroke-width:40.67px;"/><path d="M1285.83,577.635c-7.404,0 -13.844,-1.525 -19.32,-4.577c-5.475,-3.051 -9.716,-7.348 -12.722,-12.89c-3.007,-5.542 -4.511,-12.037 -4.511,-19.486l0,-1.481c0,-7.404 1.515,-13.877 4.544,-19.419c3.029,-5.542 7.259,-9.85 12.689,-12.923c5.431,-3.074 11.736,-4.611 18.917,-4.611c6.462,-0 12.094,1.346 16.896,4.039c4.802,2.692 8.538,6.495 11.208,11.409c2.671,4.913 4.006,10.668 4.006,17.265c-0,1.929 -0.067,3.713 -0.202,5.351c-0.135,1.638 -0.359,3.107 -0.673,4.409l-56.816,-0l0,-11.847l39.111,0l0,0.404c0,-4.667 -1.189,-8.313 -3.567,-10.938c-2.379,-2.625 -5.655,-3.938 -9.829,-3.938c-5.206,0 -9.323,1.874 -12.352,5.621c-3.03,3.747 -4.544,8.896 -4.544,15.447l-0,0.943c-0,6.417 1.537,11.487 4.611,15.212c3.074,3.724 7.259,5.587 12.554,5.587c6.508,-0 11.153,-3.186 13.935,-9.558l17.301,7.202c-2.693,6.013 -6.732,10.646 -12.117,13.899c-5.386,3.254 -11.759,4.88 -19.119,4.88Z" style="fill:#3a3f43;fill-rule:nonzero;stroke:#fabb19;stroke-width:40.67px;"/><path d="M1344.12,567.943l0,-63.407l17.031,0l0,16.155l0.943,-0c2.109,-5.968 5.116,-10.534 9.02,-13.698c3.905,-3.163 8.482,-4.745 13.733,-4.745c3.59,-0 6.777,0.707 9.559,2.12c2.782,1.414 5.61,3.781 8.482,7.101l-12.319,14.741c-2.064,-2.198 -4.005,-3.735 -5.823,-4.61c-1.818,-0.875 -3.916,-1.313 -6.294,-1.313c-4.757,0 -8.381,1.593 -10.872,4.779c-2.491,3.186 -3.736,7.83 -3.736,13.933l0,28.944l-19.724,-0Zm-14.338,7.404l-0,-15.212l56.95,-0l-0,15.212l-56.95,-0Zm1.346,-55.598l-0,-15.213l22.013,0l-0,15.213l-22.013,-0Z" style="fill:#3a3f43;fill-rule:nonzero;stroke:#fabb19;stroke-width:40.67px;"/></g><g><path d="M1529.38,577.635c-8.123,0 -15.147,-1.985 -21.07,-5.957c-5.924,-3.971 -10.479,-9.614 -13.666,-16.928c-3.186,-7.314 -4.779,-16.042 -4.779,-26.184l-0,-2.558c-0,-10.141 1.582,-18.903 4.746,-26.284c3.163,-7.382 7.674,-13.07 13.53,-17.063c5.857,-3.994 12.802,-5.991 20.835,-5.991c8.302,0 15.225,2.098 20.767,6.294c5.543,4.195 9.481,10.309 11.814,18.342l-18.646,6.394c-1.122,-4.039 -2.794,-6.989 -5.016,-8.851c-2.221,-1.863 -5.149,-2.794 -8.784,-2.794c-5.969,0 -10.524,2.536 -13.666,7.606c-3.141,5.071 -4.712,12.408 -4.712,22.011l-0,3.231c-0,9.648 1.604,16.996 4.813,22.044c3.209,5.048 7.865,7.572 13.968,7.572c4.847,0 8.606,-1.626 11.276,-4.88c2.67,-3.253 4.005,-7.797 4.005,-13.63l0,-2.962l-18.714,0l0,-16.625l37.832,-0l0,15.346c0,13.373 -2.995,23.694 -8.986,30.963c-5.992,7.27 -14.507,10.904 -25.547,10.904Z" style="fill:#3a3f43;fill-rule:nonzero;stroke:#33a850;stroke-width:40.67px;"/><path d="M1586.47,567.943l-0,-63.407l17.031,0l-0,16.155l0.942,-0c2.11,-5.968 5.116,-10.534 9.021,-13.698c3.904,-3.163 8.482,-4.745 13.733,-4.745c3.59,-0 6.776,0.707 9.559,2.12c2.782,1.414 5.609,3.781 8.482,7.101l-12.319,14.741c-2.065,-2.198 -4.006,-3.735 -5.823,-4.61c-1.818,-0.875 -3.916,-1.313 -6.295,-1.313c-4.757,0 -8.381,1.593 -10.871,4.779c-2.491,3.186 -3.736,7.83 -3.736,13.933l-0,28.944l-19.724,-0Zm-14.339,7.404l0,-15.212l56.95,-0l0,15.212l-56.95,-0Zm1.347,-55.598l-0,-15.213l22.012,0l0,15.213l-22.012,-0Z" style="fill:#3a3f43;fill-rule:nonzero;stroke:#33a850;stroke-width:40.67px;"/><path d="M1687.64,577.635c-6.866,0 -12.947,-1.581 -18.243,-4.745c-5.295,-3.164 -9.435,-7.528 -12.42,-13.092c-2.984,-5.564 -4.476,-11.936 -4.476,-19.116l-0,-1.481c-0,-7.18 1.492,-13.552 4.476,-19.116c2.985,-5.564 7.125,-9.928 12.42,-13.092c5.296,-3.163 11.377,-4.745 18.243,-4.745c6.867,-0 12.936,1.582 18.21,4.745c5.273,3.164 9.413,7.528 12.42,13.092c3.006,5.564 4.51,11.936 4.51,19.116l-0,1.481c-0,7.18 -1.504,13.552 -4.51,19.116c-3.007,5.564 -7.147,9.928 -12.42,13.092c-5.274,3.164 -11.343,4.745 -18.21,4.745Zm0,-17.904c4.533,-0 8.157,-1.75 10.872,-5.25c2.715,-3.5 4.073,-8.19 4.073,-14.068l-0,-0.943c-0,-5.878 -1.358,-10.567 -4.073,-14.067c-2.715,-3.501 -6.339,-5.251 -10.872,-5.251c-4.532,0 -8.156,1.75 -10.871,5.251c-2.715,3.5 -4.073,8.189 -4.073,14.067l-0,0.943c-0,5.878 1.358,10.568 4.073,14.068c2.715,3.5 6.339,5.25 10.871,5.25Z" style="fill:#3a3f43;fill-rule:nonzero;stroke:#33a850;stroke-width:40.67px;"/><path d="M1687.64,547.755c-6.866,-0 -12.947,-0.527 -18.243,-1.581c-5.295,-1.054 -9.435,-2.508 -12.42,-4.362c-2.984,-1.854 -4.476,-3.977 -4.476,-6.369l-0,-0.494c-0,-2.392 1.492,-4.515 4.476,-6.369c2.985,-1.854 7.125,-3.308 12.42,-4.362c5.296,-1.054 11.377,-1.581 18.243,-1.581c6.867,0 12.936,0.527 18.21,1.581c5.273,1.054 9.413,2.508 12.42,4.362c3.006,1.854 4.51,3.977 4.51,6.369l-0,0.494c-0,2.392 -1.504,4.515 -4.51,6.369c-3.007,1.854 -7.147,3.308 -12.42,4.362c-5.274,1.054 -11.343,1.581 -18.21,1.581Zm0,-5.966c4.533,0 8.157,-0.583 10.872,-1.749c2.715,-1.166 4.073,-2.729 4.073,-4.687l-0,-0.314c-0,-1.959 -1.358,-3.521 -4.073,-4.687c-2.715,-1.166 -6.339,-1.75 -10.872,-1.75c-4.532,0 -8.156,0.584 -10.871,1.75c-2.715,1.166 -4.073,2.728 -4.073,4.687l-0,0.314c-0,1.958 1.358,3.521 4.073,4.687c2.715,1.166 6.339,1.749 10.871,1.749Z" style="fill:#3a3f43;fill-rule:nonzero;stroke:#33a850;stroke-width:40.67px;"/><path d="M1758.39,577.635c-6.553,0 -11.691,-2.165 -15.416,-6.495c-3.725,-4.33 -5.587,-10.22 -5.587,-17.669l-0,-48.935l20.329,0l0,44.291c0,3.769 0.864,6.675 2.592,8.716c1.728,2.042 4.163,3.063 7.304,3.063c3.321,-0 5.98,-1.324 7.977,-3.971c1.997,-2.648 2.996,-6.238 2.996,-10.77l-0,-41.329l20.33,0l-0,70.811l-19.32,-0l-0,-10.77l-0.674,0c-2.154,3.814 -4.947,6.944 -8.381,9.39c-3.433,2.446 -7.483,3.668 -12.15,3.668Z" style="fill:#3a3f43;fill-rule:nonzero;stroke:#33a850;stroke-width:40.67px;"/><path d="M1857.35,502.248c5.206,-0 9.761,1.548 13.665,4.644c3.905,3.097 6.945,7.427 9.122,12.991c2.176,5.564 3.265,12.071 3.265,19.52l-0,1.077c-0,7.449 -1.066,13.967 -3.198,19.554c-2.132,5.586 -5.116,9.917 -8.953,12.991c-3.837,3.073 -8.336,4.61 -13.497,4.61c-4.353,0 -8.191,-1.02 -11.512,-3.062c-3.32,-2.042 -6.17,-5.06 -8.549,-9.053l-0.606,-0l0,37.289l-20.329,0l-0,-98.273l19.656,0l0,10.501l0.606,-0c2.109,-4.039 4.937,-7.18 8.482,-9.424c3.545,-2.243 7.495,-3.365 11.848,-3.365Zm-7.27,16.827c-4.129,0 -7.428,1.84 -9.896,5.52c-2.468,3.68 -3.703,8.638 -3.703,14.875l0,0.943c0,6.237 1.235,11.196 3.703,14.875c2.468,3.68 5.744,5.52 9.828,5.52c4.174,-0 7.394,-1.739 9.66,-5.217c2.267,-3.477 3.4,-8.402 3.4,-14.774l-0,-1.683c-0,-6.417 -1.133,-11.364 -3.4,-14.842c-2.266,-3.478 -5.464,-5.217 -9.592,-5.217Z" style="fill:#3a3f43;fill-rule:nonzero;stroke:#33a850;stroke-width:40.67px;"/></g><g><path d="M556.717,771.496c-7.629,-0 -14.182,-1.952 -19.657,-5.856c-5.475,-3.904 -9.671,-9.524 -12.588,-16.861c-2.917,-7.337 -4.376,-16.099 -4.376,-26.285l0,-2.962c0,-10.231 1.459,-19.003 4.376,-26.318c2.917,-7.314 7.113,-12.923 12.588,-16.827c5.475,-3.904 12.028,-5.856 19.657,-5.856c7.629,-0 14.181,1.952 19.656,5.856c5.476,3.904 9.672,9.513 12.589,16.827c2.917,7.315 4.375,16.087 4.375,26.318l0,2.962c0,10.186 -1.458,18.948 -4.375,26.285c-2.917,7.337 -7.113,12.957 -12.589,16.861c-5.475,3.904 -12.027,5.856 -19.656,5.856Zm0.033,-19.52c5.049,-0 8.886,-2.49 11.512,-7.471c2.625,-4.981 3.938,-12.206 3.938,-21.674l-0,-3.635c-0,-9.513 -1.313,-16.749 -3.938,-21.708c-2.626,-4.958 -6.463,-7.437 -11.512,-7.437c-5.048,-0 -8.897,2.479 -11.544,7.437c-2.648,4.959 -3.972,12.195 -3.972,21.708l-0,3.635c-0,9.468 1.324,16.693 3.972,21.674c2.647,4.981 6.496,7.471 11.544,7.471Z" style="fill:#3a3f43;fill-rule:nonzero;stroke:#567dbf;stroke-width:40.67px;"/><path d="M606.397,769.207l-0,-70.81l19.32,0l-0,10.77l0.606,-0c2.647,-4.174 5.901,-7.393 9.761,-9.659c3.859,-2.266 8.19,-3.4 12.992,-3.4c6.552,0 11.713,2.222 15.483,6.664c3.77,4.443 5.654,10.433 5.654,17.972l0,48.463l-20.329,0l-0,-44.02c-0,-3.86 -0.853,-6.844 -2.558,-8.953c-1.706,-2.109 -4.264,-3.163 -7.675,-3.163c-3.859,-0 -6.978,1.357 -9.357,4.072c-2.378,2.715 -3.567,6.271 -3.567,10.669l-0,41.395l-20.33,0Z" style="fill:#3a3f43;fill-rule:nonzero;stroke:#567dbf;stroke-width:40.67px;"/></g><g><path d="M802.895,771.496c-7.853,-0 -14.708,-2.031 -20.565,-6.092c-5.856,-4.061 -10.412,-9.76 -13.665,-17.096c-3.254,-7.337 -4.881,-15.942 -4.881,-25.814l0,-2.962c0,-9.961 1.582,-18.611 4.746,-25.948c3.164,-7.336 7.618,-13.013 13.363,-17.029c5.744,-4.016 12.521,-6.024 20.329,-6.024c8.303,-0 15.248,2.288 20.835,6.865c5.587,4.577 9.413,11.151 11.478,19.722l-19.119,5.722c-1.121,-4.398 -2.748,-7.629 -4.88,-9.693c-2.132,-2.064 -4.993,-3.096 -8.583,-3.096c-5.43,-0 -9.626,2.535 -12.588,7.606c-2.962,5.07 -4.443,12.25 -4.443,21.539l-0,3.635c-0,9.154 1.582,16.3 4.746,21.438c3.164,5.138 7.528,7.707 13.093,7.707c7.046,-0 11.668,-4.42 13.867,-13.26l19.118,5.654c-2.064,8.571 -5.969,15.234 -11.713,19.991c-5.744,4.757 -12.79,7.135 -21.138,7.135Z" style="fill:#3a3f43;fill-rule:nonzero;stroke:#e84538;stroke-width:40.67px;"/><path d="M818.871,742.248c-7.854,0 -14.709,-0.863 -20.565,-2.589c-5.857,-1.727 -10.412,-4.149 -13.666,-7.268c-3.253,-3.119 -4.88,-6.777 -4.88,-10.973l-0,-1.259c-0,-4.235 1.582,-7.912 4.746,-11.031c3.163,-3.118 7.618,-5.531 13.362,-7.239c5.744,-1.707 12.521,-2.561 20.33,-2.561c8.302,0 15.247,0.973 20.834,2.919c5.588,1.946 9.414,4.74 11.478,8.384l-19.118,2.432c-1.122,-1.87 -2.749,-3.243 -4.881,-4.121c-2.131,-0.877 -4.992,-1.316 -8.583,-1.316c-5.43,0 -9.626,1.078 -12.588,3.234c-2.962,2.155 -4.443,5.207 -4.443,9.156l0,1.545c0,3.891 1.582,6.929 4.746,9.113c3.164,2.184 7.528,3.276 13.093,3.276c7.046,0 11.669,-1.879 13.868,-5.636l19.118,2.403c-2.065,3.643 -5.969,6.476 -11.713,8.498c-5.745,2.022 -12.791,3.033 -21.138,3.033Z" style="fill:#3a3f43;fill-rule:nonzero;stroke:#e84538;stroke-width:40.67px;"/><path d="M870.617,771.496c-4.623,-0 -8.696,-0.942 -12.219,-2.827c-3.522,-1.885 -6.271,-4.51 -8.246,-7.875c-1.975,-3.366 -2.962,-7.247 -2.962,-11.645l0,-0.875c0,-7.225 2.525,-13.002 7.573,-17.332c5.049,-4.331 11.792,-6.496 20.229,-6.496c3.456,0 6.653,0.303 9.593,0.909c2.939,0.606 5.666,1.492 8.179,2.659l-0,11.779c-3.59,-2.154 -7.742,-3.231 -12.454,-3.231c-4.039,-0 -7.147,0.92 -9.323,2.76c-2.177,1.839 -3.265,4.487 -3.265,7.942l-0,0.943c-0,3.051 0.931,5.407 2.794,7.067c1.862,1.661 4.476,2.491 7.842,2.491c2.558,-0 4.791,-0.685 6.698,-2.053c1.907,-1.369 3.4,-3.298 4.477,-5.789c1.077,-2.49 1.615,-5.374 1.615,-8.649l0,-16.491c0,-4.398 -1.122,-7.707 -3.366,-9.929c-2.244,-2.221 -5.542,-3.331 -9.895,-3.331c-5.879,-0 -11.377,2.423 -16.493,7.269l-10.501,-11.241c7.629,-7.628 17.502,-11.443 29.619,-11.443c9.918,0 17.469,2.379 22.652,7.135c5.184,4.757 7.775,11.645 7.775,20.665l0,45.299l-19.387,0l0,-9.086l-0.606,-0c-2.019,3.634 -4.79,6.439 -8.313,8.413c-3.523,1.975 -7.529,2.962 -12.016,2.962Z" style="fill:#3a3f43;fill-rule:nonzero;stroke:#e84538;stroke-width:40.67px;"/><path d="M923.662,769.207l0,-70.81l17.032,0l-0,9.558l0.605,0c1.571,-3.859 3.512,-6.798 5.823,-8.818c2.312,-2.019 5.173,-3.029 8.583,-3.029c3.77,0 6.777,1.403 9.021,4.207c2.244,2.805 3.523,6.765 3.837,11.881l-1.346,-0c1.481,-5.206 3.601,-9.188 6.361,-11.948c2.76,-2.76 6.047,-4.14 9.862,-4.14c9.559,0 14.339,7.517 14.339,22.549l-0,50.55l-18.109,0l0,-48.261c0,-2.782 -0.336,-4.779 -1.01,-5.991c-0.673,-1.211 -1.705,-1.817 -3.096,-1.817c-1.795,-0 -3.209,0.853 -4.241,2.558c-1.032,1.705 -1.548,4.151 -1.548,7.337l-0,46.174l-18.109,0l0,-48.059c0,-2.827 -0.336,-4.869 -1.009,-6.125c-0.674,-1.257 -1.706,-1.885 -3.097,-1.885c-1.84,-0 -3.265,0.841 -4.275,2.524c-1.009,1.683 -1.514,4.162 -1.514,7.438l-0,46.107l-18.109,0Z" style="fill:#3a3f43;fill-rule:nonzero;stroke:#e84538;stroke-width:40.67px;"/></g><g><path d="M1049.55,696.108c5.206,0 9.761,1.549 13.666,4.645c3.904,3.096 6.945,7.426 9.121,12.991c2.177,5.564 3.265,12.071 3.265,19.52l0,1.077c0,7.449 -1.066,13.967 -3.197,19.553c-2.132,5.587 -5.117,9.917 -8.954,12.991c-3.837,3.074 -8.336,4.611 -13.497,4.611c-4.353,-0 -8.19,-1.021 -11.511,-3.063c-3.321,-2.041 -6.171,-5.059 -8.549,-9.053l-0.606,0l-0,37.29l-20.33,0l0,-98.273l19.657,0l-0,10.5l0.606,0c2.109,-4.038 4.936,-7.179 8.482,-9.423c3.545,-2.244 7.494,-3.366 11.847,-3.366Zm-7.27,16.828c-4.129,0 -7.427,1.84 -9.895,5.519c-2.469,3.68 -3.703,8.639 -3.703,14.876l0,0.942c0,6.238 1.234,11.196 3.703,14.876c2.468,3.68 5.744,5.519 9.828,5.519c4.173,0 7.393,-1.738 9.66,-5.216c2.266,-3.478 3.399,-8.403 3.399,-14.775l0,-1.682c0,-6.417 -1.133,-11.365 -3.399,-14.842c-2.267,-3.478 -5.464,-5.217 -9.593,-5.217Z" style="fill:#3a3f43;fill-rule:nonzero;stroke:#fabb19;stroke-width:40.67px;"/><path d="M1112.15,771.496c-6.552,-0 -11.69,-2.165 -15.415,-6.495c-3.725,-4.331 -5.588,-10.22 -5.588,-17.669l0,-48.935l20.33,0l0,44.29c0,3.77 0.864,6.675 2.592,8.717c1.728,2.042 4.162,3.062 7.304,3.062c3.321,0 5.98,-1.323 7.977,-3.971c1.997,-2.647 2.995,-6.237 2.995,-10.769l0,-41.329l20.33,0l0,70.81l-19.32,0l0,-10.769l-0.673,-0c-2.154,3.814 -4.948,6.944 -8.381,9.39c-3.433,2.445 -7.483,3.668 -12.151,3.668Z" style="fill:#3a3f43;fill-rule:nonzero;stroke:#fabb19;stroke-width:40.67px;"/><path d="M1205.99,771.429c-8.751,-0 -16.01,-1.784 -21.777,-5.352c-5.767,-3.567 -9.705,-8.716 -11.814,-15.447l17.031,-5.654c1.033,3.275 2.985,5.811 5.857,7.606c2.872,1.795 6.35,2.692 10.434,2.692c2.872,0 5.105,-0.493 6.698,-1.481c1.593,-0.987 2.39,-2.378 2.39,-4.173l-0,-0.269c-0,-1.66 -0.673,-2.962 -2.02,-3.904c-1.346,-0.942 -4.061,-1.975 -8.145,-3.096l-10.165,-2.895c-5.924,-1.705 -10.468,-4.296 -13.632,-7.774c-3.163,-3.478 -4.745,-7.797 -4.745,-12.957l-0,-0.135c-0,-6.821 2.558,-12.273 7.674,-16.356c5.116,-4.084 11.982,-6.126 20.599,-6.126c7.584,0 13.811,1.493 18.68,4.477c4.87,2.984 8.224,7.348 10.064,13.091l-17.031,5.722c-1.705,-4.936 -5.969,-7.404 -12.79,-7.404c-2.738,-0 -4.858,0.46 -6.362,1.38c-1.503,0.919 -2.255,2.232 -2.255,3.937l0,0.068c0,1.48 0.595,2.67 1.784,3.567c1.189,0.897 3.355,1.795 6.496,2.692l10.165,2.827c7.046,1.93 12.196,4.723 15.449,8.381c3.254,3.657 4.881,8.425 4.881,14.303l-0,0.269c-0,6.641 -2.502,11.97 -7.506,15.986c-5.004,4.017 -11.657,6.025 -19.96,6.025Z" style="fill:#3a3f43;fill-rule:nonzero;stroke:#fabb19;stroke-width:40.67px;"/></g><g><path d="M1332.48,769.207l0,-96.388l31.235,0c7.136,0 13.284,1.29 18.445,3.87c5.161,2.581 9.122,6.272 11.882,11.073c2.76,4.801 4.14,10.545 4.14,17.231l-0,1.481c-0,6.642 -1.38,12.374 -4.14,17.198c-2.76,4.824 -6.721,8.526 -11.882,11.106c-5.161,2.58 -11.309,3.871 -18.445,3.871l-19.32,-0l0,-18.713l18.916,0c4.354,0 7.776,-1.166 10.266,-3.5c2.491,-2.333 3.736,-5.542 3.736,-9.625l0,-2.154c0,-4.084 -1.245,-7.292 -3.736,-9.625c-2.49,-2.334 -5.912,-3.501 -10.266,-3.501l-10.232,0l0,77.676l-20.599,0Z" style="fill:#3a3f43;fill-rule:nonzero;stroke:#33a850;stroke-width:40.67px;"/><path d="M1418.71,769.207l-12.319,-96.388l19.051,0l4.982,65.762l0.404,0l3.029,-18.779l5.654,-28.001l11.579,-0l5.655,28.001l3.029,18.779l0.404,0l4.375,-65.762l19.657,0l-12.319,96.388l-16.695,0l-7.068,-35.001l-2.625,-16.693l-0.404,0l-2.626,16.693l-7.001,35.001l-16.762,0Z" style="fill:#3a3f43;fill-rule:nonzero;stroke:#33a850;stroke-width:40.67px;"/></g></g><g id="textGDG1" serif:id="textGDG" transform="matrix(1.5901,0,0,1.58994,-1630.22,-645.726)"><g transform="matrix(84.6702,0,0,84.6702,1095.93,768)"><path d="M0.325,0.017c-0.061,0 -0.113,-0.015 -0.157,-0.044c-0.044,-0.03 -0.078,-0.072 -0.102,-0.126c-0.023,-0.054 -0.035,-0.119 -0.035,-0.195l0,-0.019c0,-0.075 0.012,-0.14 0.035,-0.195c0.024,-0.055 0.057,-0.097 0.101,-0.126c0.043,-0.03 0.095,-0.045 0.155,-0.045c0.061,0 0.113,0.016 0.154,0.047c0.041,0.031 0.07,0.076 0.088,0.136l-0.139,0.047c-0.008,-0.03 -0.021,-0.051 -0.037,-0.065c-0.017,-0.014 -0.038,-0.021 -0.065,-0.021c-0.045,0 -0.079,0.019 -0.102,0.057c-0.023,0.037 -0.035,0.092 -0.035,0.163l0,0.024c0,0.072 0.012,0.126 0.036,0.164c0.024,0.037 0.058,0.056 0.104,0.056c0.036,-0 0.063,-0.012 0.083,-0.036c0.02,-0.024 0.03,-0.058 0.03,-0.102l0,-0.022l-0.139,0.001l0,-0.124l0.281,0l0,0.114c0,0.099 -0.022,0.176 -0.067,0.23c-0.044,0.054 -0.107,0.081 -0.19,0.081Z" style="fill:#3a3f43;fill-rule:nonzero;"/></g><g transform="matrix(84.6702,0,0,84.6702,1146.73,768)"><path d="M0.3,0.017c-0.051,0 -0.096,-0.012 -0.135,-0.035c-0.04,-0.024 -0.071,-0.056 -0.093,-0.098c-0.022,-0.041 -0.033,-0.088 -0.033,-0.142l0,-0.011c0,-0.053 0.011,-0.1 0.033,-0.142c0.022,-0.041 0.053,-0.073 0.093,-0.097c0.039,-0.023 0.084,-0.035 0.135,-0.035c0.051,0 0.096,0.012 0.135,0.035c0.039,0.024 0.07,0.056 0.092,0.097c0.023,0.042 0.034,0.089 0.034,0.143l0,0.011c0,0.053 -0.011,0.1 -0.034,0.142c-0.022,0.041 -0.053,0.073 -0.092,0.097c-0.039,0.023 -0.084,0.035 -0.135,0.035Zm-0,-0.133c0.034,-0 0.061,-0.013 0.081,-0.039c0.02,-0.026 0.03,-0.061 0.03,-0.105l0,-0.007c0,-0.043 -0.01,-0.078 -0.03,-0.104c-0.02,-0.026 -0.047,-0.039 -0.081,-0.039c-0.034,0 -0.061,0.013 -0.081,0.039c-0.02,0.026 -0.03,0.061 -0.03,0.104l0,0.008c0,0.043 0.01,0.078 0.03,0.104c0.02,0.026 0.047,0.039 0.081,0.039Z" style="fill:#3a3f43;fill-rule:nonzero;"/></g><g transform="matrix(84.6702,0,0,84.6702,1197.53,768)"><path d="M0.3,0.017c-0.051,0 -0.096,-0.012 -0.135,-0.035c-0.04,-0.024 -0.071,-0.056 -0.093,-0.098c-0.022,-0.041 -0.033,-0.088 -0.033,-0.142l0,-0.011c0,-0.053 0.011,-0.1 0.033,-0.142c0.022,-0.041 0.053,-0.073 0.093,-0.097c0.039,-0.023 0.084,-0.035 0.135,-0.035c0.051,0 0.096,0.012 0.135,0.035c0.039,0.024 0.07,0.056 0.092,0.097c0.023,0.042 0.034,0.089 0.034,0.143l0,0.011c0,0.053 -0.011,0.1 -0.034,0.142c-0.022,0.041 -0.053,0.073 -0.092,0.097c-0.039,0.023 -0.084,0.035 -0.135,0.035Zm-0,-0.133c0.034,-0 0.061,-0.013 0.081,-0.039c0.02,-0.026 0.03,-0.061 0.03,-0.105l0,-0.007c0,-0.043 -0.01,-0.078 -0.03,-0.104c-0.02,-0.026 -0.047,-0.039 -0.081,-0.039c-0.034,0 -0.061,0.013 -0.081,0.039c-0.02,0.026 -0.03,0.061 -0.03,0.104l0,0.008c0,0.043 0.01,0.078 0.03,0.104c0.02,0.026 0.047,0.039 0.081,0.039Z" style="fill:#3a3f43;fill-rule:nonzero;"/></g><g transform="matrix(84.6702,0,0,84.6702,1248.34,768)"><path d="M0.3,0.286c-0.056,0 -0.105,-0.008 -0.147,-0.023c-0.042,-0.016 -0.075,-0.037 -0.098,-0.065c-0.023,-0.028 -0.035,-0.06 -0.035,-0.097c0,-0.038 0.012,-0.07 0.036,-0.097c0.024,-0.027 0.058,-0.045 0.102,-0.055l0.022,0.062c-0.009,0.009 -0.016,0.02 -0.02,0.031c-0.005,0.011 -0.007,0.024 -0.007,0.038c0,0.029 0.013,0.052 0.038,0.068c0.026,0.016 0.062,0.024 0.109,0.024c0.047,0 0.084,-0.007 0.111,-0.022c0.027,-0.015 0.04,-0.035 0.04,-0.061c0,-0.035 -0.023,-0.053 -0.068,-0.053l-0.264,0l0,-0.049l0.106,-0.167l0.08,0.011l-0.032,0.092l0.138,0c0.055,0 0.097,0.014 0.128,0.041c0.031,0.027 0.046,0.064 0.046,0.112c0,0.043 -0.012,0.081 -0.035,0.112c-0.023,0.031 -0.056,0.056 -0.098,0.073c-0.043,0.017 -0.094,0.025 -0.152,0.025Zm0.005,-0.423c-0.045,-0 -0.085,-0.009 -0.121,-0.027c-0.036,-0.017 -0.064,-0.041 -0.085,-0.072c-0.021,-0.03 -0.031,-0.065 -0.031,-0.103l-0,-0.003c-0,-0.039 0.009,-0.074 0.029,-0.105c0.019,-0.03 0.046,-0.054 0.08,-0.071c0.034,-0.016 0.074,-0.025 0.119,-0.025c0.045,0 0.085,0.009 0.121,0.027c0.036,0.017 0.064,0.041 0.085,0.072c0.021,0.03 0.032,0.064 0.032,0.102l-0,0.003c-0,0.04 -0.01,0.075 -0.029,0.105c-0.02,0.031 -0.047,0.054 -0.081,0.071c-0.035,0.017 -0.074,0.026 -0.119,0.026Zm-0.004,-0.116c0.03,0 0.054,-0.008 0.072,-0.023c0.017,-0.014 0.026,-0.035 0.026,-0.061l0,-0.004c0,-0.026 -0.009,-0.046 -0.026,-0.062c-0.018,-0.014 -0.042,-0.022 -0.072,-0.022c-0.031,0 -0.055,0.008 -0.073,0.023c-0.018,0.015 -0.026,0.035 -0.026,0.061l-0,0.004c-0,0.026 0.008,0.047 0.026,0.062c0.018,0.015 0.042,0.022 0.073,0.022Zm0.119,-0.213l-0.049,-0.03c0.011,-0.048 0.033,-0.085 0.067,-0.11c0.034,-0.025 0.078,-0.037 0.133,-0.037l-0,0.125c-0.069,-0 -0.119,0.017 -0.151,0.052Z" style="fill:#3a3f43;fill-rule:nonzero;"/></g><g transform="matrix(84.6702,0,0,84.6702,1299.14,768)"><path d="M0.396,0.017c-0.067,0 -0.12,-0.019 -0.158,-0.056c-0.038,-0.038 -0.057,-0.09 -0.057,-0.156l0,-0.535l0.152,0l0,0.524c0,0.059 0.026,0.088 0.078,0.088c0.014,-0 0.026,-0.003 0.038,-0.008c0.012,-0.005 0.025,-0.014 0.038,-0.027l0.079,0.107c-0.024,0.022 -0.05,0.038 -0.077,0.048c-0.027,0.01 -0.058,0.015 -0.093,0.015Zm-0.36,-0.63l0,-0.117l0.26,0l-0,0.117l-0.26,0Z" style="fill:#3a3f43;fill-rule:nonzero;"/></g><g transform="matrix(84.6702,0,0,84.6702,1349.94,768)"><path d="M0.316,0.017c-0.055,0 -0.103,-0.011 -0.144,-0.034c-0.041,-0.023 -0.072,-0.055 -0.094,-0.096c-0.023,-0.041 -0.034,-0.089 -0.034,-0.145l0,-0.011c0,-0.055 0.011,-0.103 0.034,-0.144c0.022,-0.041 0.054,-0.073 0.094,-0.096c0.04,-0.023 0.087,-0.034 0.141,-0.034c0.048,0 0.089,0.01 0.125,0.03c0.036,0.02 0.063,0.048 0.083,0.085c0.02,0.036 0.03,0.079 0.03,0.128c0,0.014 -0.001,0.028 -0.002,0.04c-0,0.012 -0.002,0.023 -0.005,0.033l-0.422,-0.001l0,-0.087l0.291,-0.001l0,0.004c0,-0.035 -0.009,-0.062 -0.027,-0.082c-0.017,-0.019 -0.041,-0.029 -0.073,-0.029c-0.038,0 -0.069,0.014 -0.091,0.042c-0.023,0.028 -0.034,0.066 -0.034,0.115l0,0.007c0,0.047 0.011,0.085 0.034,0.113c0.023,0.027 0.054,0.041 0.094,0.041c0.048,0 0.082,-0.024 0.103,-0.071l0.128,0.054c-0.02,0.044 -0.05,0.079 -0.09,0.103c-0.04,0.024 -0.087,0.036 -0.142,0.036Z" style="fill:#3a3f43;fill-rule:nonzero;"/></g><g transform="matrix(84.6702,0,0,84.6702,1400.74,768)"></g><g transform="matrix(84.6702,0,0,84.6702,1451.54,768)"><path d="M0.058,-0l0,-0.716l0.209,0c0.06,0 0.112,0.014 0.156,0.042c0.044,0.029 0.077,0.069 0.101,0.121c0.024,0.052 0.036,0.113 0.036,0.184l0,0.022c0,0.071 -0.012,0.132 -0.036,0.184c-0.024,0.052 -0.057,0.092 -0.101,0.12c-0.044,0.029 -0.096,0.043 -0.156,0.043l-0.209,-0Zm0.153,-0.144l0.054,-0c0.046,-0 0.08,-0.017 0.103,-0.05c0.024,-0.034 0.035,-0.084 0.035,-0.151l0,-0.027c0,-0.066 -0.012,-0.116 -0.035,-0.15c-0.023,-0.033 -0.057,-0.05 -0.103,-0.05l-0.054,0l-0,0.428Z" style="fill:#3a3f43;fill-rule:nonzero;"/></g><g transform="matrix(84.6702,0,0,84.6702,1502.35,768)"><path d="M0.316,0.017c-0.055,0 -0.103,-0.011 -0.144,-0.034c-0.041,-0.023 -0.072,-0.055 -0.094,-0.096c-0.023,-0.041 -0.034,-0.089 -0.034,-0.145l0,-0.011c0,-0.055 0.011,-0.103 0.034,-0.144c0.022,-0.041 0.054,-0.073 0.094,-0.096c0.04,-0.023 0.087,-0.034 0.141,-0.034c0.048,0 0.089,0.01 0.125,0.03c0.036,0.02 0.063,0.048 0.083,0.085c0.02,0.036 0.03,0.079 0.03,0.128c0,0.014 -0.001,0.028 -0.002,0.04c-0,0.012 -0.002,0.023 -0.005,0.033l-0.422,-0.001l0,-0.087l0.291,-0.001l0,0.004c0,-0.035 -0.009,-0.062 -0.027,-0.082c-0.017,-0.019 -0.041,-0.029 -0.073,-0.029c-0.038,0 -0.069,0.014 -0.091,0.042c-0.023,0.028 -0.034,0.066 -0.034,0.115l0,0.007c0,0.047 0.011,0.085 0.034,0.113c0.023,0.027 0.054,0.041 0.094,0.041c0.048,0 0.082,-0.024 0.103,-0.071l0.128,0.054c-0.02,0.044 -0.05,0.079 -0.09,0.103c-0.04,0.024 -0.087,0.036 -0.142,0.036Z" style="fill:#3a3f43;fill-rule:nonzero;"/></g><g transform="matrix(84.6702,0,0,84.6702,1553.15,768)"><path d="M0.223,-0l-0.193,-0.526l0.16,0l0.078,0.239l0.032,0.138l0.005,0l0.032,-0.138l0.074,-0.239l0.159,0l-0.193,0.526l-0.154,-0Z" style="fill:#3a3f43;fill-rule:nonzero;"/></g><g transform="matrix(84.6702,0,0,84.6702,1603.95,768)"><path d="M0.316,0.017c-0.055,0 -0.103,-0.011 -0.144,-0.034c-0.041,-0.023 -0.072,-0.055 -0.094,-0.096c-0.023,-0.041 -0.034,-0.089 -0.034,-0.145l0,-0.011c0,-0.055 0.011,-0.103 0.034,-0.144c0.022,-0.041 0.054,-0.073 0.094,-0.096c0.04,-0.023 0.087,-0.034 0.141,-0.034c0.048,0 0.089,0.01 0.125,0.03c0.036,0.02 0.063,0.048 0.083,0.085c0.02,0.036 0.03,0.079 0.03,0.128c0,0.014 -0.001,0.028 -0.002,0.04c-0,0.012 -0.002,0.023 -0.005,0.033l-0.422,-0.001l0,-0.087l0.291,-0.001l0,0.004c0,-0.035 -0.009,-0.062 -0.027,-0.082c-0.017,-0.019 -0.041,-0.029 -0.073,-0.029c-0.038,0 -0.069,0.014 -0.091,0.042c-0.023,0.028 -0.034,0.066 -0.034,0.115l0,0.007c0,0.047 0.011,0.085 0.034,0.113c0.023,0.027 0.054,0.041 0.094,0.041c0.048,0 0.082,-0.024 0.103,-0.071l0.128,0.054c-0.02,0.044 -0.05,0.079 -0.09,0.103c-0.04,0.024 -0.087,0.036 -0.142,0.036Z" style="fill:#3a3f43;fill-rule:nonzero;"/></g><g transform="matrix(84.6702,0,0,84.6702,1654.75,768)"><path d="M0.396,0.017c-0.067,0 -0.12,-0.019 -0.158,-0.056c-0.038,-0.038 -0.057,-0.09 -0.057,-0.156l0,-0.535l0.152,0l0,0.524c0,0.059 0.026,0.088 0.078,0.088c0.014,-0 0.026,-0.003 0.038,-0.008c0.012,-0.005 0.025,-0.014 0.038,-0.027l0.079,0.107c-0.024,0.022 -0.05,0.038 -0.077,0.048c-0.027,0.01 -0.058,0.015 -0.093,0.015Zm-0.36,-0.63l0,-0.117l0.26,0l-0,0.117l-0.26,0Z" style="fill:#3a3f43;fill-rule:nonzero;"/></g><g transform="matrix(84.6702,0,0,84.6702,1705.56,768)"><path d="M0.3,0.017c-0.051,0 -0.096,-0.012 -0.135,-0.035c-0.04,-0.024 -0.071,-0.056 -0.093,-0.098c-0.022,-0.041 -0.033,-0.088 -0.033,-0.142l0,-0.011c0,-0.053 0.011,-0.1 0.033,-0.142c0.022,-0.041 0.053,-0.073 0.093,-0.097c0.039,-0.023 0.084,-0.035 0.135,-0.035c0.051,0 0.096,0.012 0.135,0.035c0.039,0.024 0.07,0.056 0.092,0.097c0.023,0.042 0.034,0.089 0.034,0.143l0,0.011c0,0.053 -0.011,0.1 -0.034,0.142c-0.022,0.041 -0.053,0.073 -0.092,0.097c-0.039,0.023 -0.084,0.035 -0.135,0.035Zm-0,-0.133c0.034,-0 0.061,-0.013 0.081,-0.039c0.02,-0.026 0.03,-0.061 0.03,-0.105l0,-0.007c0,-0.043 -0.01,-0.078 -0.03,-0.104c-0.02,-0.026 -0.047,-0.039 -0.081,-0.039c-0.034,0 -0.061,0.013 -0.081,0.039c-0.02,0.026 -0.03,0.061 -0.03,0.104l0,0.008c0,0.043 0.01,0.078 0.03,0.104c0.02,0.026 0.047,0.039 0.081,0.039Z" style="fill:#3a3f43;fill-rule:nonzero;"/></g><g transform="matrix(84.6702,0,0,84.6702,1756.36,768)"><path d="M0.361,-0.543c0.038,0 0.072,0.012 0.101,0.034c0.029,0.023 0.052,0.056 0.068,0.097c0.016,0.041 0.024,0.09 0.024,0.145l0,0.008c0,0.055 -0.008,0.104 -0.024,0.145c-0.016,0.042 -0.038,0.074 -0.066,0.097c-0.029,0.023 -0.062,0.034 -0.101,0.034c-0.032,0 -0.06,-0.008 -0.085,-0.023c-0.025,-0.015 -0.046,-0.037 -0.063,-0.067l-0.005,0l0,0.277l-0.151,0l0,-0.73l0.146,0l0,0.078l0.005,0c0.015,-0.03 0.036,-0.053 0.063,-0.07c0.026,-0.017 0.055,-0.025 0.088,-0.025Zm-0.054,0.125c-0.031,0 -0.056,0.014 -0.074,0.041c-0.018,0.027 -0.027,0.064 -0.027,0.111l-0,0.007c-0,0.046 0.009,0.083 0.027,0.11c0.018,0.027 0.043,0.041 0.073,0.041c0.031,0 0.055,-0.013 0.072,-0.039c0.017,-0.026 0.025,-0.062 0.025,-0.109l0,-0.013c0,-0.048 -0.008,-0.084 -0.025,-0.11c-0.017,-0.026 -0.041,-0.039 -0.072,-0.039Z" style="fill:#3a3f43;fill-rule:nonzero;"/></g><g transform="matrix(84.6702,0,0,84.6702,1807.16,768)"><path d="M0.316,0.017c-0.055,0 -0.103,-0.011 -0.144,-0.034c-0.041,-0.023 -0.072,-0.055 -0.094,-0.096c-0.023,-0.041 -0.034,-0.089 -0.034,-0.145l0,-0.011c0,-0.055 0.011,-0.103 0.034,-0.144c0.022,-0.041 0.054,-0.073 0.094,-0.096c0.04,-0.023 0.087,-0.034 0.141,-0.034c0.048,0 0.089,0.01 0.125,0.03c0.036,0.02 0.063,0.048 0.083,0.085c0.02,0.036 0.03,0.079 0.03,0.128c0,0.014 -0.001,0.028 -0.002,0.04c-0,0.012 -0.002,0.023 -0.005,0.033l-0.422,-0.001l0,-0.087l0.291,-0.001l0,0.004c0,-0.035 -0.009,-0.062 -0.027,-0.082c-0.017,-0.019 -0.041,-0.029 -0.073,-0.029c-0.038,0 -0.069,0.014 -0.091,0.042c-0.023,0.028 -0.034,0.066 -0.034,0.115l0,0.007c0,0.047 0.011,0.085 0.034,0.113c0.023,0.027 0.054,0.041 0.094,0.041c0.048,0 0.082,-0.024 0.103,-0.071l0.128,0.054c-0.02,0.044 -0.05,0.079 -0.09,0.103c-0.04,0.024 -0.087,0.036 -0.142,0.036Z" style="fill:#3a3f43;fill-rule:nonzero;"/></g><g transform="matrix(84.6702,0,0,84.6702,1857.96,768)"><path d="M0.149,-0.055l-0.001,-0.471l0.127,0l0,0.12l0.007,0c0.016,-0.044 0.038,-0.078 0.067,-0.102c0.029,-0.023 0.063,-0.035 0.102,-0.035c0.027,0 0.05,0.005 0.071,0.016c0.021,0.01 0.042,0.028 0.063,0.052l-0.091,0.11c-0.016,-0.016 -0.03,-0.028 -0.044,-0.034c-0.013,-0.007 -0.029,-0.01 -0.046,-0.01c-0.036,0 -0.063,0.012 -0.081,0.036c-0.019,0.023 -0.028,0.058 -0.028,0.103l0,0.215l-0.147,0Zm-0.106,0.055l0,-0.113l0.423,0l0,0.113l-0.423,0Zm0.01,-0.413l0,-0.113l0.164,0l-0.001,0.113l-0.163,0Z" style="fill:#3a3f43;fill-rule:nonzero;"/></g><g transform="matrix(84.6702,0,0,84.6702,1908.76,768)"></g><g transform="matrix(84.6702,0,0,84.6702,1959.57,768)"><path d="M0.325,0.017c-0.061,0 -0.113,-0.015 -0.157,-0.044c-0.044,-0.03 -0.078,-0.072 -0.102,-0.126c-0.023,-0.054 -0.035,-0.119 -0.035,-0.195l0,-0.019c0,-0.075 0.012,-0.14 0.035,-0.195c0.024,-0.055 0.057,-0.097 0.101,-0.126c0.043,-0.03 0.095,-0.045 0.155,-0.045c0.061,0 0.113,0.016 0.154,0.047c0.041,0.031 0.07,0.076 0.088,0.136l-0.139,0.047c-0.008,-0.03 -0.021,-0.051 -0.037,-0.065c-0.017,-0.014 -0.038,-0.021 -0.065,-0.021c-0.045,0 -0.079,0.019 -0.102,0.057c-0.023,0.037 -0.035,0.092 -0.035,0.163l0,0.024c0,0.072 0.012,0.126 0.036,0.164c0.024,0.037 0.058,0.056 0.104,0.056c0.036,-0 0.063,-0.012 0.083,-0.036c0.02,-0.024 0.03,-0.058 0.03,-0.102l0,-0.022l-0.139,0.001l0,-0.124l0.281,0l0,0.114c0,0.099 -0.022,0.176 -0.067,0.23c-0.044,0.054 -0.107,0.081 -0.19,0.081Z" style="fill:#3a3f43;fill-rule:nonzero;"/></g><g transform="matrix(84.6702,0,0,84.6702,2010.37,768)"><path d="M0.149,-0.055l-0.001,-0.471l0.127,0l0,0.12l0.007,0c0.016,-0.044 0.038,-0.078 0.067,-0.102c0.029,-0.023 0.063,-0.035 0.102,-0.035c0.027,0 0.05,0.005 0.071,0.016c0.021,0.01 0.042,0.028 0.063,0.052l-0.091,0.11c-0.016,-0.016 -0.03,-0.028 -0.044,-0.034c-0.013,-0.007 -0.029,-0.01 -0.046,-0.01c-0.036,0 -0.063,0.012 -0.081,0.036c-0.019,0.023 -0.028,0.058 -0.028,0.103l0,0.215l-0.147,0Zm-0.106,0.055l0,-0.113l0.423,0l0,0.113l-0.423,0Zm0.01,-0.413l0,-0.113l0.164,0l-0.001,0.113l-0.163,0Z" style="fill:#3a3f43;fill-rule:nonzero;"/></g><g transform="matrix(84.6702,0,0,84.6702,2061.17,768)"><path d="M0.3,0.017c-0.051,0 -0.096,-0.012 -0.135,-0.035c-0.04,-0.024 -0.071,-0.056 -0.093,-0.098c-0.022,-0.041 -0.033,-0.088 -0.033,-0.142l0,-0.011c0,-0.053 0.011,-0.1 0.033,-0.142c0.022,-0.041 0.053,-0.073 0.093,-0.097c0.039,-0.023 0.084,-0.035 0.135,-0.035c0.051,0 0.096,0.012 0.135,0.035c0.039,0.024 0.07,0.056 0.092,0.097c0.023,0.042 0.034,0.089 0.034,0.143l0,0.011c0,0.053 -0.011,0.1 -0.034,0.142c-0.022,0.041 -0.053,0.073 -0.092,0.097c-0.039,0.023 -0.084,0.035 -0.135,0.035Zm-0,-0.133c0.034,-0 0.061,-0.013 0.081,-0.039c0.02,-0.026 0.03,-0.061 0.03,-0.105l0,-0.007c0,-0.043 -0.01,-0.078 -0.03,-0.104c-0.02,-0.026 -0.047,-0.039 -0.081,-0.039c-0.034,0 -0.061,0.013 -0.081,0.039c-0.02,0.026 -0.03,0.061 -0.03,0.104l0,0.008c0,0.043 0.01,0.078 0.03,0.104c0.02,0.026 0.047,0.039 0.081,0.039Z" style="fill:#3a3f43;fill-rule:nonzero;"/></g><g transform="matrix(84.6702,0,0,84.6702,2111.97,768)"><path d="M0.226,0.017c-0.049,0 -0.087,-0.016 -0.115,-0.048c-0.028,-0.032 -0.041,-0.076 -0.041,-0.132l-0.001,-0.363l0.152,0l-0.001,0.329c0.001,0.028 0.007,0.05 0.02,0.065c0.013,0.015 0.031,0.023 0.054,0.023c0.025,-0 0.044,-0.01 0.059,-0.03c0.015,-0.02 0.023,-0.046 0.023,-0.08l-0.001,-0.307l0.151,0l0,0.526l-0.143,-0l0,-0.08l-0.005,0c-0.016,0.028 -0.037,0.052 -0.062,0.07c-0.026,0.018 -0.056,0.027 -0.091,0.027Z" style="fill:#3a3f43;fill-rule:nonzero;"/></g><g transform="matrix(84.6702,0,0,84.6702,2162.77,768)"><path d="M0.361,-0.543c0.038,0 0.072,0.012 0.101,0.034c0.029,0.023 0.052,0.056 0.068,0.097c0.016,0.041 0.024,0.09 0.024,0.145l0,0.008c0,0.055 -0.008,0.104 -0.024,0.145c-0.016,0.042 -0.038,0.074 -0.066,0.097c-0.029,0.023 -0.062,0.034 -0.101,0.034c-0.032,0 -0.06,-0.008 -0.085,-0.023c-0.025,-0.015 -0.046,-0.037 -0.063,-0.067l-0.005,0l0,0.277l-0.151,0l0,-0.73l0.146,0l0,0.078l0.005,0c0.015,-0.03 0.036,-0.053 0.063,-0.07c0.026,-0.017 0.055,-0.025 0.088,-0.025Zm-0.054,0.125c-0.031,0 -0.056,0.014 -0.074,0.041c-0.018,0.027 -0.027,0.064 -0.027,0.111l-0,0.007c-0,0.046 0.009,0.083 0.027,0.11c0.018,0.027 0.043,0.041 0.073,0.041c0.031,0 0.055,-0.013 0.072,-0.039c0.017,-0.026 0.025,-0.062 0.025,-0.109l0,-0.013c0,-0.048 -0.008,-0.084 -0.025,-0.11c-0.017,-0.026 -0.041,-0.039 -0.072,-0.039Z" style="fill:#3a3f43;fill-rule:nonzero;"/></g><g transform="matrix(84.6702,0,0,84.6702,2213.58,768)"></g><g transform="matrix(84.6702,0,0,84.6702,1349.94,889.93)"><path d="M0.3,0.017c-0.057,0 -0.105,-0.015 -0.146,-0.043c-0.041,-0.029 -0.072,-0.071 -0.094,-0.126c-0.021,-0.054 -0.032,-0.119 -0.032,-0.195l0,-0.022c0,-0.076 0.011,-0.141 0.033,-0.196c0.021,-0.054 0.052,-0.096 0.093,-0.125c0.041,-0.029 0.089,-0.043 0.146,-0.043c0.057,0 0.105,0.014 0.146,0.043c0.041,0.029 0.072,0.071 0.094,0.125c0.021,0.055 0.032,0.12 0.032,0.196l0,0.022c0,0.076 -0.011,0.141 -0.032,0.195c-0.022,0.055 -0.053,0.096 -0.094,0.125c-0.041,0.029 -0.089,0.044 -0.146,0.044Zm0,-0.145c0.038,-0 0.066,-0.019 0.086,-0.056c0.019,-0.037 0.029,-0.09 0.029,-0.161l0,-0.027c0,-0.07 -0.01,-0.124 -0.029,-0.161c-0.02,-0.037 -0.048,-0.055 -0.086,-0.055c-0.037,0 -0.066,0.018 -0.085,0.055c-0.02,0.037 -0.03,0.091 -0.03,0.161l0,0.027c0,0.071 0.01,0.124 0.03,0.161c0.019,0.037 0.048,0.056 0.085,0.056Z" style="fill:#3a3f43;fill-rule:nonzero;"/></g><g transform="matrix(84.6702,0,0,84.6702,1400.74,889.93)"><path d="M0.069,-0l0,-0.526l0.143,0l0,0.08l0.005,0c0.02,-0.031 0.044,-0.055 0.072,-0.072c0.029,-0.017 0.061,-0.025 0.097,-0.025c0.049,0 0.087,0.016 0.115,0.05c0.028,0.033 0.042,0.077 0.042,0.133l0,0.36l-0.151,0l0,-0.327c0,-0.029 -0.006,-0.051 -0.019,-0.066c-0.013,-0.016 -0.032,-0.024 -0.057,-0.024c-0.029,0 -0.052,0.01 -0.07,0.03c-0.017,0.02 -0.026,0.047 -0.026,0.08l0,0.307l-0.151,0Z" style="fill:#3a3f43;fill-rule:nonzero;"/></g><g transform="matrix(84.6702,0,0,84.6702,1451.54,889.93)"></g><g transform="matrix(84.6702,0,0,84.6702,1502.35,889.93)"><path d="M0.329,0.017c-0.059,0 -0.11,-0.015 -0.153,-0.045c-0.044,-0.03 -0.078,-0.073 -0.102,-0.127c-0.024,-0.055 -0.036,-0.119 -0.036,-0.192l-0,-0.022c-0,-0.074 0.012,-0.138 0.035,-0.193c0.024,-0.054 0.057,-0.096 0.1,-0.126c0.042,-0.03 0.093,-0.045 0.151,-0.045c0.061,0 0.113,0.017 0.154,0.051c0.042,0.034 0.07,0.083 0.086,0.147l-0.142,0.042c-0.009,-0.033 -0.021,-0.057 -0.037,-0.072c-0.016,-0.015 -0.037,-0.023 -0.063,-0.023c-0.041,0 -0.072,0.019 -0.094,0.057c-0.022,0.037 -0.033,0.09 -0.033,0.16l0,0.026c0,0.068 0.012,0.122 0.035,0.16c0.024,0.038 0.056,0.057 0.098,0.057c0.052,-0 0.086,-0.033 0.103,-0.099l0.142,0.042c-0.016,0.064 -0.045,0.114 -0.087,0.149c-0.043,0.035 -0.095,0.053 -0.157,0.053Z" style="fill:#3a3f43;fill-rule:nonzero;"/></g><g transform="matrix(84.6702,0,0,84.6702,1553.15,889.93)"><path d="M0.232,0.017c-0.035,0 -0.065,-0.007 -0.091,-0.021c-0.026,-0.014 -0.047,-0.034 -0.062,-0.058c-0.014,-0.026 -0.022,-0.054 -0.022,-0.087l0,-0.006c0,-0.054 0.019,-0.097 0.057,-0.129c0.037,-0.032 0.087,-0.048 0.15,-0.048c0.026,-0.001 0.049,0.002 0.071,0.006c0.022,0.005 0.042,0.011 0.061,0.02l0,0.087c-0.027,-0.016 -0.058,-0.024 -0.093,-0.024c-0.03,0 -0.053,0.007 -0.069,0.021c-0.016,0.014 -0.024,0.033 -0.024,0.059l-0,0.007c-0,0.023 0.007,0.04 0.021,0.052c0.014,0.013 0.033,0.019 0.058,0.019c0.019,-0 0.036,-0.005 0.05,-0.015c0.014,-0.01 0.025,-0.025 0.033,-0.043c0.008,-0.019 0.012,-0.04 0.012,-0.065l0,-0.122c0,-0.033 -0.008,-0.057 -0.025,-0.074c-0.017,-0.016 -0.041,-0.024 -0.073,-0.025c-0.044,0.001 -0.085,0.018 -0.123,0.054l-0.078,-0.083c0.057,-0.057 0.13,-0.085 0.22,-0.085c0.074,0 0.13,0.018 0.168,0.053c0.039,0.035 0.058,0.087 0.058,0.154l0,0.336l-0.144,0l0,-0.067l-0.005,-0c-0.015,0.027 -0.035,0.047 -0.061,0.062c-0.026,0.015 -0.056,0.022 -0.09,0.022Z" style="fill:#3a3f43;fill-rule:nonzero;"/></g><g transform="matrix(84.6702,0,0,84.6702,1603.95,889.93)"><path d="M0.026,-0l-0.001,-0.526l0.127,0l0,0.071l0.005,0c0.011,-0.029 0.026,-0.05 0.043,-0.065c0.017,-0.015 0.038,-0.023 0.064,-0.023c0.028,0 0.05,0.01 0.067,0.031c0.016,0.021 0.026,0.05 0.028,0.089l-0.01,-0c0.011,-0.039 0.027,-0.069 0.047,-0.089c0.021,-0.021 0.045,-0.031 0.074,-0.031c0.071,0 0.106,0.056 0.106,0.168l0,0.375l-0.135,-0l0,-0.359c0,-0.02 -0.002,-0.035 -0.007,-0.044c-0.005,-0.009 -0.013,-0.013 -0.023,-0.014c-0.013,0.001 -0.024,0.007 -0.032,0.019c-0.007,0.013 -0.011,0.031 -0.011,0.055l0,0.343l-0.134,-0l-0,-0.357c-0,-0.021 -0.003,-0.036 -0.008,-0.046c-0.005,-0.009 -0.013,-0.014 -0.023,-0.014c-0.014,0.001 -0.024,0.007 -0.032,0.019c-0.007,0.013 -0.011,0.031 -0.011,0.055l0,0.343l-0.134,-0Z" style="fill:#3a3f43;fill-rule:nonzero;"/></g><g transform="matrix(84.6702,0,0,84.6702,1654.75,889.93)"><path d="M0.361,-0.543c0.038,0 0.072,0.012 0.101,0.034c0.029,0.023 0.052,0.056 0.068,0.097c0.016,0.041 0.024,0.09 0.024,0.145l0,0.008c0,0.055 -0.008,0.104 -0.024,0.145c-0.016,0.042 -0.038,0.074 -0.066,0.097c-0.029,0.023 -0.062,0.034 -0.101,0.034c-0.032,0 -0.06,-0.008 -0.085,-0.023c-0.025,-0.015 -0.046,-0.037 -0.063,-0.067l-0.005,0l0,0.277l-0.151,0l0,-0.73l0.146,0l0,0.078l0.005,0c0.015,-0.03 0.036,-0.053 0.063,-0.07c0.026,-0.017 0.055,-0.025 0.088,-0.025Zm-0.054,0.125c-0.031,0 -0.056,0.014 -0.074,0.041c-0.018,0.027 -0.027,0.064 -0.027,0.111l-0,0.007c-0,0.046 0.009,0.083 0.027,0.11c0.018,0.027 0.043,0.041 0.073,0.041c0.031,0 0.055,-0.013 0.072,-0.039c0.017,-0.026 0.025,-0.062 0.025,-0.109l0,-0.013c0,-0.048 -0.008,-0.084 -0.025,-0.11c-0.017,-0.026 -0.041,-0.039 -0.072,-0.039Z" style="fill:#3a3f43;fill-rule:nonzero;"/></g><g transform="matrix(84.6702,0,0,84.6702,1705.56,889.93)"><path d="M0.226,0.017c-0.049,0 -0.087,-0.016 -0.115,-0.048c-0.028,-0.032 -0.041,-0.076 -0.041,-0.132l-0.001,-0.363l0.152,0l-0.001,0.329c0.001,0.028 0.007,0.05 0.02,0.065c0.013,0.015 0.031,0.023 0.054,0.023c0.025,-0 0.044,-0.01 0.059,-0.03c0.015,-0.02 0.023,-0.046 0.023,-0.08l-0.001,-0.307l0.151,0l0,0.526l-0.143,-0l0,-0.08l-0.005,0c-0.016,0.028 -0.037,0.052 -0.062,0.07c-0.026,0.018 -0.056,0.027 -0.091,0.027Z" style="fill:#3a3f43;fill-rule:nonzero;"/></g><g transform="matrix(84.6702,0,0,84.6702,1756.36,889.93)"><path d="M0.323,0.017c-0.066,-0.001 -0.119,-0.014 -0.162,-0.04c-0.043,-0.027 -0.072,-0.065 -0.088,-0.115l0.127,-0.042c0.007,0.024 0.022,0.043 0.043,0.057c0.021,0.013 0.047,0.02 0.077,0.02c0.022,-0 0.038,-0.004 0.05,-0.011c0.012,-0.008 0.018,-0.018 0.018,-0.031l0,-0.002c0,-0.013 -0.005,-0.022 -0.015,-0.029c-0.01,-0.007 -0.03,-0.015 -0.061,-0.023l-0.075,-0.022c-0.044,-0.013 -0.078,-0.032 -0.101,-0.058c-0.024,-0.026 -0.035,-0.058 -0.035,-0.096l-0,-0.001c-0,-0.051 0.019,-0.091 0.057,-0.122c0.038,-0.03 0.089,-0.045 0.153,-0.045c0.056,0 0.102,0.011 0.138,0.033c0.036,0.022 0.061,0.055 0.075,0.097l-0.126,0.043c-0.013,-0.037 -0.045,-0.055 -0.095,-0.055c-0.021,0 -0.037,0.003 -0.048,0.01c-0.011,0.007 -0.016,0.017 -0.016,0.03l-0,0c-0,0.011 0.004,0.02 0.013,0.027c0.009,0.006 0.025,0.013 0.048,0.019l0.076,0.021c0.052,0.015 0.09,0.036 0.114,0.063c0.024,0.027 0.037,0.062 0.037,0.106l-0,0.002c-0,0.049 -0.019,0.089 -0.056,0.119c-0.037,0.03 -0.087,0.044 -0.148,0.044Z" style="fill:#3a3f43;fill-rule:nonzero;"/></g><g transform="matrix(84.6702,0,0,84.6702,1807.16,889.93)"></g><g transform="matrix(84.6702,0,0,84.6702,1857.96,889.93)"><path d="M0.062,-0l0,-0.716l0.232,0c0.053,0 0.099,0.01 0.137,0.029c0.038,0.019 0.068,0.046 0.088,0.082c0.021,0.036 0.031,0.078 0.031,0.128l0,0.011c0,0.049 -0.01,0.092 -0.031,0.128c-0.02,0.036 -0.05,0.063 -0.088,0.082c-0.038,0.019 -0.084,0.029 -0.137,0.029l-0.144,-0l0,-0.139l0.141,0c0.032,0 0.058,-0.009 0.076,-0.026c0.019,-0.017 0.028,-0.041 0.028,-0.072l-0,-0.016c-0,-0.03 -0.009,-0.054 -0.028,-0.071c-0.018,-0.017 -0.044,-0.026 -0.076,-0.026l-0.076,0l-0,0.577l-0.153,0Z" style="fill:#3a3f43;fill-rule:nonzero;"/></g><g transform="matrix(84.6702,0,0,84.6702,1908.76,889.93)"><path d="M0.103,-0l-0.092,-0.716l0.141,0l0.037,0.488l0.003,0l0.023,-0.139l0.042,-0.208l0.086,-0l0.042,0.208l0.023,0.139l0.003,0l0.032,-0.488l0.146,0l-0.092,0.716l-0.124,-0l-0.052,-0.26l-0.02,-0.124l-0.003,0l-0.019,0.124l-0.052,0.26l-0.125,-0Z" style="fill:#3a3f43;fill-rule:nonzero;"/></g><g transform="matrix(84.6702,0,0,84.6702,1959.57,889.93)"></g></g></g><g id="logoGDG"><g><g><path d="M826.617,238.853l107.287,-61.779c25.385,-14.367 34.006,-46.933 19.158,-72.315c-14.369,-25.382 -46.938,-34.003 -72.323,-19.157l-184.877,106.797l130.755,46.454Z" style="fill:#e74639;fill-rule:nonzero;"/></g><g><path d="M907.561,398.33c18.201,0 35.922,-9.578 45.98,-26.34c14.369,-25.382 5.748,-57.469 -19.158,-72.315l-185.836,-107.276c-25.385,-14.367 -57.475,-5.747 -72.323,19.156c-14.368,25.383 -5.747,57.47 19.159,72.316l185.356,107.275c8.622,4.789 17.722,7.184 26.822,7.184Z" style="fill:#4185f4;fill-rule:nonzero;"/></g></g><g><g><path d="M1091.96,398.33c9.1,0 18.2,-2.395 26.343,-7.184l185.835,-107.275l-129.318,-47.412l-109.203,62.737c-25.385,14.367 -34.006,46.933 -19.158,72.315c9.579,17.241 27.301,26.819 45.501,26.819Z" style="fill:#fbbc0e;fill-rule:nonzero;"/></g><g><path d="M1277.8,291.054c18.2,0 35.921,-9.578 45.98,-26.34c14.368,-25.382 5.747,-57.469 -19.159,-72.315l-185.835,-106.797c-25.385,-14.367 -57.475,-5.746 -72.323,19.157c-14.369,25.382 -5.748,57.469 19.158,72.315l185.836,106.797c8.142,4.789 17.242,7.183 26.343,7.183Z" style="fill:#32a853;fill-rule:nonzero;"/></g></g></g></svg>